<svg viewBox="-100 -100 600 350" style="background: #D3D3D3;" xmlns="http://www.w3.org/2000/svg"> <defs> <radialGradient id="pitGradientPlayer1" cx="50%" cy="50%" r="50%" fx="50%" fy="50%"> <stop offset="0%" style="stop-color:#8B5A2B; stop-opacity:1" /> <stop offset="100%" style="stop-color:#4E2C1E; stop-opacity:1" /> </radialGradient> <radialGradient id="pitGradientPlayer2" cx="50%" cy="50%" r="50%" fx="50%" fy="50%"> <stop offset="0%" style="stop-color:#9B8B7B; stop-opacity:1" /> <stop offset="100%" style="stop-color:#70645E; stop-opacity:1" /> </radialGradient> <rect id="base-rect" width="50" height="90" x="0" y="0" rx="15" style="fill:#a06734;fill-opacity:1;stroke-width:0.5;stroke:#a06734" /> <circle id="pit-0" r="20" fill="url(#pitGradientPlayer1)"/> <circle id="pit-1" r="20" fill="url(#pitGradientPlayer2)"/> <circle id="seed" r="2" fill="#FFFFF0"/> <g id="score-board-0"> <rect width="50" height="90" x="0" y="0" rx="15" style="fill:#a06734;fill-opacity:1;stroke-width:0.2;stroke:#a06734" /> <rect width="34" height="78" x="8" y="6" rx="15" fill="url(#pitGradientPlayer1)" /> </g> <g id="score-board-1"> <rect width="50" height="90" x="0" y="0" rx="15" style="fill:#a06734;fill-opacity:1;stroke-width:0.2;stroke:#a06734" /> <rect width="34" height="78" x="8" y="6" rx="15" fill="url(#pitGradientPlayer2)" /> </g> </defs> <style> .fade { animation: fadeOut 2s 3s forwards; } .index-label { fill: black; font-size: 12px; font-weight: 600; text-anchor: middle; font-family: "Poppins", sans-serif; } .grow { animation: growIn 2s 3s forwards; } @keyframes fadeOut { from { opacity: 1; } to { opacity: 0; } } @keyframes growIn { from { opacity: 0; } to { opacity: 1; } } .orbit { fill: none; stroke: #2E8B57; stroke-width: 1.5; stroke-dasharray: 157; stroke-dashoffset: 157; animation: drawCircle 4s linear infinite; } @keyframes drawCircle { 0%, 100% { stroke-dashoffset: 157; } 50% { stroke-dashoffset: 0; } } </style><g transform="translate(0 0)"> <use href="#score-board-0" /></g><g transform="translate(50, 0)"> <g> <use href="#base-rect" /><use href="#pit-1" class="" x="25" y="23"/> <text x="25" y="-1" class="index-label">11</text><use href="#seed" class="seed" x="25" y="25"/><use href="#seed" class="seed fade" x="30" y="25"/><use href="#seed" class="seed fade" x="20" y="25"/><use href="#seed" class="seed fade" x="25" y="20"/><use href="#pit-0" class="" x="25" y="67"/> <text x="25" y="100" class="index-label">0</text><use href="#seed" class="seed" x="25" y="69"/><use href="#seed" class="seed" x="30" y="69"/><use href="#seed" class="seed" x="20" y="69"/><use href="#seed" class="seed" x="25" y="64"/><use href="#seed" class="seed grow" style="opacity:0;" x="30" y="64"/><use href="#seed" class="seed grow" style="opacity:0;" x="20" y="64"/></g> </g><g transform="translate(100, 0)"> <g> <use href="#base-rect" /><use href="#pit-1" class="" x="25" y="23"/> <text x="25" y="-1" class="index-label">10</text><use href="#seed" class="seed fade" x="25" y="25"/><use href="#seed" class="seed fade" x="30" y="25"/><use href="#seed" class="seed fade" x="20" y="25"/><use href="#seed" class="seed fade" x="25" y="20"/><use href="#pit-0" class="" x="25" y="67"/> <text x="25" y="100" class="index-label">1</text><use href="#seed" class="seed" x="25" y="69"/><use href="#seed" class="seed" x="30" y="69"/><use href="#seed" class="seed" x="20" y="69"/><use href="#seed" class="seed" x="25" y="64"/><use href="#seed" class="seed grow" style="opacity:0;" x="30" y="64"/><use href="#seed" class="seed grow" style="opacity:0;" x="20" y="64"/></g> </g><g transform="translate(150, 0)"> <g> <use href="#base-rect" /><use href="#pit-1" class="" x="25" y="23"/> <text x="25" y="-1" class="index-label">9</text><use href="#seed" class="seed" x="25" y="25"/><use href="#seed" class="seed" x="30" y="25"/><use href="#seed" class="seed" x="20" y="25"/><use href="#seed" class="seed" x="25" y="20"/><use href="#seed" class="seed grow" style="opacity:0;" x="30" y="20"/><use href="#seed" class="seed grow" style="opacity:0;" x="20" y="20"/><use href="#pit-0" class="orbit" x="25" y="67"/> <text x="25" y="100" class="index-label">2</text><use href="#seed" class="seed" x="25" y="69"/><use href="#seed" class="seed" x="30" y="69"/><use href="#seed" class="seed fade" x="20" y="69"/><use href="#seed" class="seed fade" x="25" y="64"/></g> </g><g transform="translate(200, 0)"> <g> <use href="#base-rect" /><use href="#pit-1" class="" x="25" y="23"/> <text x="25" y="-1" class="index-label">8</text><use href="#seed" class="seed" x="25" y="25"/><use href="#seed" class="seed" x="30" y="25"/><use href="#seed" class="seed" x="20" y="25"/><use href="#seed" class="seed" x="25" y="20"/><use href="#seed" class="seed grow" style="opacity:0;" x="30" y="20"/><use href="#seed" class="seed grow" style="opacity:0;" x="20" y="20"/><use href="#pit-0" class="" x="25" y="67"/> <text x="25" y="100" class="index-label">3</text><use href="#seed" class="seed" x="25" y="69"/><use href="#seed" class="seed" x="30" y="69"/><use href="#seed" class="seed" x="20" y="69"/><use href="#seed" class="seed" x="25" y="64"/><use href="#seed" class="seed grow" style="opacity:0;" x="30" y="64"/><use href="#seed" class="seed grow" style="opacity:0;" x="20" y="64"/><use href="#seed" class="seed grow" style="opacity:0;" x="25" y="74"/></g> </g><g transform="translate(250, 0)"> <g> <use href="#base-rect" /><use href="#pit-1" class="" x="25" y="23"/> <text x="25" y="-1" class="index-label">7</text><use href="#seed" class="seed" x="25" y="25"/><use href="#seed" class="seed" x="30" y="25"/><use href="#seed" class="seed" x="20" y="25"/><use href="#seed" class="seed" x="25" y="20"/><use href="#seed" class="seed grow" style="opacity:0;" x="30" y="20"/><use href="#seed" class="seed grow" style="opacity:0;" x="20" y="20"/><use href="#pit-0" class="" x="25" y="67"/> <text x="25" y="100" class="index-label">4</text><use href="#seed" class="seed" x="25" y="69"/><use href="#seed" class="seed fade" x="30" y="69"/><use href="#seed" class="seed fade" x="20" y="69"/><use href="#seed" class="seed fade" x="25" y="64"/></g> </g><g transform="translate(300, 0)"> <g> <use href="#base-rect" /><use href="#pit-1" class="" x="25" y="23"/> <text x="25" y="-1" class="index-label">6</text><use href="#seed" class="seed" x="25" y="25"/><use href="#seed" class="seed fade" x="30" y="25"/><use href="#seed" class="seed fade" x="20" y="25"/><use href="#seed" class="seed fade" x="25" y="20"/><use href="#pit-0" class="" x="25" y="67"/> <text x="25" y="100" class="index-label">5</text><use href="#seed" class="seed" x="25" y="69"/><use href="#seed" class="seed" x="30" y="69"/><use href="#seed" class="seed" x="20" y="69"/><use href="#seed" class="seed" x="25" y="64"/><use href="#seed" class="seed grow" style="opacity:0;" x="30" y="64"/><use href="#seed" class="seed grow" style="opacity:0;" x="20" y="64"/></g> </g><g transform="translate(350 0)"> <use href="#score-board-1" /></g></svg>